TITLE ""
FILE "Disc6Track39.mp3" MP3
  TRACK 01 AUDIO
    TITLE "Disc6Track39_01"
    INDEX 01 00:00:00
  TRACK 02 AUDIO
    TITLE "Disc6Track39_02"
    INDEX 01 00:03:69
  TRACK 03 AUDIO
    TITLE "Disc6Track39_03"
    INDEX 01 00:04:24
  TRACK 04 AUDIO
    TITLE "Disc6Track39_04"
    INDEX 01 00:05:41
  TRACK 05 AUDIO
    TITLE "Disc6Track39_05"
    INDEX 01 00:07:42
  TRACK 06 AUDIO
    TITLE "Disc6Track39_06"
    INDEX 01 00:08:65
  TRACK 07 AUDIO
    TITLE "Disc6Track39_07"
    INDEX 01 00:14:08
  TRACK 08 AUDIO
    TITLE "Disc6Track39_08"
    INDEX 01 00:14:38
  TRACK 09 AUDIO
    TITLE "Disc6Track39_09"
    INDEX 01 00:15:63
  TRACK 10 AUDIO
    TITLE "Disc6Track39_10"
    INDEX 01 00:18:26
  TRACK 11 AUDIO
    TITLE "Disc6Track39_11"
    INDEX 01 00:19:49
  TRACK 12 AUDIO
    TITLE "Disc6Track39_12"
    INDEX 01 00:25:02
  TRACK 13 AUDIO
    TITLE "Disc6Track39_13"
    INDEX 01 00:25:34
  TRACK 14 AUDIO
    TITLE "Disc6Track39_14"
    INDEX 01 00:26:63
  TRACK 15 AUDIO
    TITLE "Disc6Track39_15"
    INDEX 01 00:29:53
  TRACK 16 AUDIO
    TITLE "Disc6Track39_16"
    INDEX 01 00:31:05
  TRACK 17 AUDIO
    TITLE "Disc6Track39_17"
    INDEX 01 00:36:28
  TRACK 18 AUDIO
    TITLE "Disc6Track39_18"
    INDEX 01 00:36:61
  TRACK 19 AUDIO
    TITLE "Disc6Track39_19"
    INDEX 01 00:38:15
  TRACK 20 AUDIO
    TITLE "Disc6Track39_20"
    INDEX 01 00:40:29
  TRACK 21 AUDIO
    TITLE "Disc6Track39_21"
    INDEX 01 00:41:56
  TRACK 22 AUDIO
    TITLE "Disc6Track39_22"
    INDEX 01 00:44:60
  TRACK 23 AUDIO
    TITLE "Disc6Track39_23"
    INDEX 01 00:45:17
  TRACK 24 AUDIO
    TITLE "Disc6Track39_24"
    INDEX 01 00:46:42
  TRACK 25 AUDIO
    TITLE "Disc6Track39_25"
    INDEX 01 00:48:19
  TRACK 26 AUDIO
    TITLE "Disc6Track39_26"
    INDEX 01 00:49:44
  TRACK 27 AUDIO
    TITLE "Disc6Track39_27"
    INDEX 01 00:54:20
  TRACK 28 AUDIO
    TITLE "Disc6Track39_28"
    INDEX 01 00:54:49
  TRACK 29 AUDIO
    TITLE "Disc6Track39_29"
    INDEX 01 00:56:01
  TRACK 30 AUDIO
    TITLE "Disc6Track39_30"
    INDEX 01 00:57:51
  TRACK 31 AUDIO
    TITLE "Disc6Track39_31"
    INDEX 01 00:59:01
  TRACK 32 AUDIO
    TITLE "Disc6Track39_32"
    INDEX 01 01:02:13
  TRACK 33 AUDIO
    TITLE "Disc6Track39_33"
    INDEX 01 01:02:45
  TRACK 34 AUDIO
    TITLE "Disc6Track39_34"
    INDEX 01 01:04:01
  TRACK 35 AUDIO
    TITLE "Disc6Track39_35"
    INDEX 01 01:07:15
  TRACK 36 AUDIO
    TITLE "Disc6Track39_36"
    INDEX 01 01:08:43
  TRACK 37 AUDIO
    TITLE "Disc6Track39_37"
    INDEX 01 01:13:45
  TRACK 38 AUDIO
    TITLE "Disc6Track39_38"
    INDEX 01 01:13:74
  TRACK 39 AUDIO
    TITLE "Disc6Track39_39"
    INDEX 01 01:15:24
  TRACK 40 AUDIO
    TITLE "Disc6Track39_40"
    INDEX 01 01:18:67
  TRACK 41 AUDIO
    TITLE "Disc6Track39_41"
    INDEX 01 01:20:15
  TRACK 42 AUDIO
    TITLE "Disc6Track39_42"
    INDEX 01 01:22:10
  TRACK 43 AUDIO
    TITLE "Disc6Track39_43"
    INDEX 01 01:22:42
  TRACK 44 AUDIO
    TITLE "Disc6Track39_44"
    INDEX 01 01:23:72
  TRACK 45 AUDIO
    TITLE "Disc6Track39_45"
    INDEX 01 01:25:44
  TRACK 46 AUDIO
    TITLE "Disc6Track39_46"
    INDEX 01 01:26:73
  TRACK 47 AUDIO
    TITLE "Disc6Track39_47"
    INDEX 01 01:30:63
